# Blender v2.76 (sub 0) OBJ File: ''
# www.blender.org
mtllib DeadTree.mtl
o Circle_Circle.001
v 0.521027 -0.499902 1.474816
v 0.318308 4.177602 1.443756
v 0.014708 4.183847 1.636068
v 0.010789 -0.499982 1.591835
v -0.855236 -0.499982 1.091835
v -0.586776 4.182534 1.262505
v -0.741292 4.184962 0.915931
v -1.035300 -0.496901 0.591322
v 0.510790 -0.499982 -0.274190
v 0.361867 4.182534 0.313863
v 0.616055 4.182534 0.568051
v 0.939732 -0.492702 0.054696
v -0.489211 -0.499982 -0.274190
v -0.332588 4.182534 0.313863
v 0.014686 4.183617 0.203941
v 0.010780 -0.490518 -0.478626
v 0.876814 -0.499982 1.091835
v 0.616054 4.182534 1.262505
v -0.448609 -0.500468 1.388466
v -0.332588 4.182534 1.516693
v -0.824385 -0.503953 0.113424
v -0.586776 4.182534 0.568051
v 1.010789 -0.499982 0.591835
v 0.709094 4.182534 0.915278
v -0.385434 9.616365 0.980664
v -0.549772 9.616365 0.816326
v -0.160943 9.616365 0.142856
v 0.063547 9.616365 0.203008
v -0.563360 9.615532 0.359478
v -0.420146 9.612935 0.138576
v 0.227552 9.605429 0.591634
v 0.227885 9.616365 0.816326
v -0.160944 9.616365 1.040816
v -0.543890 9.617397 0.590149
v 0.227885 9.616365 0.367346
v 0.054954 9.612897 0.966370
v -0.817069 13.386779 0.129776
v 2.918378 4.399968 0.520981
v 2.849651 4.522597 0.847860
v 0.395644 3.466768 1.265072
v 0.489097 3.217695 0.810794
v 2.707553 4.817065 1.056139
v 2.533696 5.123919 0.861818
v 0.114764 4.342266 1.252814
v 0.252665 3.906368 1.449359
v 2.482388 5.221133 0.508586
v 2.551116 5.098505 0.181707
v 0.140753 4.299335 0.374379
v 0.062720 4.519117 0.790572
v 2.859407 4.517854 0.190472
v 0.407902 3.457828 0.345664
v 2.712355 4.807402 0.011376
v 0.265059 3.890068 0.245213
v 4.144436 6.407861 0.647944
v 0.038648 5.727282 0.440056
v -1.017142 7.029872 -1.186519
v -0.818194 7.233043 -1.204812
v 0.270500 6.016979 0.480002
v -0.464384 5.772537 0.766472
v -1.427894 7.019364 -0.964241
v -1.242942 6.933904 -1.122442
v -0.278020 5.604652 0.546332
v -0.080529 6.371665 0.902396
v -1.090626 7.529197 -0.845353
v -1.282808 7.393117 -0.832107
v -0.384581 6.303191 1.034833
v -0.896946 7.450059 -1.004271
v 0.214242 6.329925 0.707672
v -0.577288 6.011882 0.966903
v -1.545146 7.228676 -0.780592
v -0.762263 5.836574 1.740728
v -1.246846 6.947159 3.035144
v -1.092672 6.795243 3.226271
v -0.561446 5.658163 1.977009
v -0.696860 5.351537 2.082594
v -1.200593 6.567538 3.324127
v -1.337769 6.325295 3.412144
v -0.876735 5.104084 2.165724
v -1.200310 5.055448 2.013290
v -1.643670 6.277049 3.292204
v -1.753483 6.469190 3.063916
v -1.326540 5.277316 1.786865
v -1.082978 5.815029 1.570391
v -1.493860 6.882278 2.935821
v -1.714111 6.716605 2.920341
v -1.266502 5.539138 1.649387
v -1.918591 8.979367 -1.906673
v 0.342212 5.257416 0.629353
v 0.576863 5.026202 0.920245
v 0.471955 4.651209 1.111025
v 0.197542 4.348316 1.156901
v -0.194229 4.298739 0.964035
v -0.428880 4.529954 0.673143
v -0.049560 5.207840 0.436487
v -0.368956 4.906516 0.454625
v -1.589950 8.634686 5.094625
v 0.218286 8.531069 0.542017
v 0.709274 10.228483 -0.569131
v 0.260233 8.681363 0.744112
v 0.066013 8.899673 0.864171
v -0.233115 8.898788 0.663245
v 0.026210 8.489059 0.331555
v -0.182337 8.681363 0.439560
v 0.094845 7.592371 0.728989
v 1.824278 8.394061 2.557551
v 0.319859 7.374678 0.655202
v 0.371529 7.105225 0.824052
v 0.179286 7.047530 1.084725
v -0.102845 7.543689 0.991626
v -0.076890 7.258327 1.200502
v 1.522394 4.649025 0.788062
v 3.034832 3.687452 2.245180
v 1.730044 4.640672 0.608273
v 1.767344 4.379405 0.486317
v 1.597460 4.156845 0.564614
v 1.352975 4.456817 0.886822
v 1.353262 4.142980 0.787942
v 1.643349 4.433762 0.577962
v 2.142942 6.443854 -0.313547
v 1.528540 4.589956 0.794636
v 1.246260 4.746916 0.806007
v 1.192731 4.636555 0.526011
v 1.495476 4.398217 0.330183
v 1.232795 4.518864 0.299077
v -0.680023 5.451860 2.033747
v -0.465357 7.262418 1.601714
v -0.766039 5.568882 2.196082
v -0.929159 5.626491 2.108851
v -1.113280 5.643638 1.970788
v -0.787549 5.424034 1.843203
v -0.953029 5.516069 1.914663
v -1.286804 5.867136 2.404114
v -0.498639 5.448895 4.203165
v -1.047436 5.912512 2.336673
v -0.844145 5.729959 2.274526
v -1.020560 5.534950 2.308722
v -1.371305 5.629286 2.417941
v -1.216439 5.436811 2.364326
v -1.257205 6.137125 2.313856
v -2.260626 7.321780 2.467188
v -1.177002 6.208491 2.465725
v -1.310404 6.110494 2.520817
v -1.425215 6.054152 2.633343
v -1.418561 6.033253 2.284654
v -1.508810 5.985021 2.464791
v -0.878437 6.963434 -0.505232
v -1.879301 8.128566 -0.335625
v -0.804411 7.027108 -0.336982
v -0.891504 6.981775 -0.169048
v -1.009840 6.890538 -0.247872
v -1.039557 6.854428 -0.505547
v -1.126650 6.809096 -0.337613
v -0.711915 6.523372 -0.185755
v -0.194550 7.888233 -1.486219
v -0.502535 6.493401 -0.159154
v -0.297698 6.524795 -0.128603
v -0.318892 6.713634 0.020299
v -0.733108 6.712211 -0.036853
v -0.529741 6.750788 0.028308
v -0.251217 8.546022 0.866928
v -0.760478 9.786713 2.315313
v -0.371234 8.706255 0.719730
v -0.260281 8.917035 0.648972
v -0.012998 9.000746 0.715827
v 0.011403 8.539589 1.009872
v 0.131861 8.817475 0.890013
v -0.459803 7.539317 0.489220
v -2.080855 8.925593 -0.015311
v -0.295739 7.725894 0.357494
v -0.204249 7.972001 0.468094
v -0.289367 8.016063 0.737153
v -0.569685 7.572264 0.778691
v -0.448268 7.838146 0.875799
v 1.451130 4.376781 0.706439
v 2.796053 3.098054 -0.668333
v 1.443544 4.560713 0.481413
v 1.265672 4.490984 0.278982
v 1.148545 4.288401 0.325149
v 1.282573 4.139900 0.706310
v 1.106429 4.086950 0.481155
vt -0.378146 -0.283758
vt -0.503433 -0.292940
vt -0.367403 -1.922862
vt -0.719715 -1.953592
vt -0.758370 -0.303350
vt -0.892276 -0.304601
vt -1.417673 -0.279041
vt -1.545940 -0.263136
vt -1.815917 -1.903489
vt -1.262334 -1.974780
vt -1.156494 -0.298067
vt -1.287161 -0.290629
vt -0.256870 -0.270686
vt -0.184438 -1.908896
vt -0.543938 -1.938140
vt -0.632059 -0.299435
vt -1.632077 -1.939045
vt -1.085515 -1.974779
vt -1.028113 -0.302413
vt -0.130989 -0.252549
vt -0.000170 -1.892192
vt -0.904494 -1.966676
vt -1.670801 -0.242506
vt -1.998507 -1.857130
vt -0.714906 1.586300
vt -0.794733 1.592555
vt -1.132557 1.618309
vt -1.212618 1.621329
vt -0.952329 1.608064
vt -1.043145 1.614113
vt -0.403044 1.626584
vt -0.478045 1.604365
vt -0.634965 1.584786
vt -0.872546 1.600455
vt -1.292897 1.626826
vt -1.370716 1.636852
vt -0.556076 1.590343
vt -0.875957 2.926369
vt 1.086765 1.020684
vt 0.183371 1.134884
vt 0.183371 0.931147
vt 1.120797 1.140273
vt 1.176791 1.266207
vt 0.269628 1.498496
vt 1.218197 0.466949
vt 1.167190 0.586878
vt 0.291043 0.384609
vt 1.078653 0.912510
vt 0.215746 0.722966
vt 0.214080 1.319474
vt 1.241647 1.388359
vt 0.339395 1.664494
vt 1.123164 0.700261
vt 0.254484 0.545006
vt 1.092035 0.807191
vt 1.879003 0.910899
vt 2.011195 -1.169715
vt 1.930943 -1.126095
vt 1.707475 -1.893030
vt 2.102947 -1.974780
vt 2.170959 -1.187917
vt 2.089100 -1.190347
vt 2.482171 -1.967086
vt 2.454259 -1.120861
vt 2.370573 -1.140034
vt 1.849612 -1.066012
vt 1.566888 -1.839586
vt 1.840968 -1.935812
vt 2.227109 -1.974780
vt 2.266527 -1.166963
vt 2.358125 -1.972888
vt 1.773519 -1.009701
vt 1.449443 -1.789781
vt 1.279541 -1.305315
vt 1.141235 -0.672931
vt 1.040528 -0.701554
vt 1.026459 -1.376263
vt 0.958666 -0.744233
vt 0.871940 -0.790558
vt 0.769908 -0.822347
vt 0.666906 -0.826256
vt 0.680259 -1.390499
vt 0.493277 -0.763803
vt 0.407212 -0.721145
vt 0.336092 -1.353602
vt 1.152282 -1.342659
vt 0.914765 -1.390429
vt 0.575944 -0.803765
vt 0.580901 -1.381650
vt 0.464469 -1.368921
vt 2.219881 -0.402832
vt 1.446457 -1.896287
vt 1.007276 -1.974780
vt 0.792071 -1.395328
vt 0.674046 -1.946745
vt 0.345881 -1.950308
vt 1.157822 -1.974780
vt 0.845224 -1.958452
vt 0.508611 -1.944937
vt 0.708015 0.207433
vt 1.250500 2.365568
vt 1.672892 2.962916
vt 1.182728 2.424011
vt 1.672948 2.241722
vt 1.547674 2.257791
vt 1.339007 2.317019
vt 1.112179 2.509349
vt 1.439793 2.282944
vt 0.183371 1.667480
vt 1.109193 1.667480
vt 0.193947 1.779723
vt 0.223976 1.888572
vt 0.264566 1.996504
vt 0.372727 2.218773
vt 0.443706 2.311120
vt 0.313402 2.109564
vt 1.921765 2.238736
vt 1.112179 2.238736
vt 1.912643 2.142854
vt 1.885814 2.044548
vt 1.849761 1.949239
vt 1.745519 1.742993
vt 1.685848 1.667480
vt 1.802935 1.843014
vt 2.045265 0.301123
vt 2.434122 0.989202
vt 1.961819 0.359607
vt 2.434122 0.210419
vt 2.327693 0.222753
vt 2.139167 0.261548
vt 1.881989 0.439972
vt 2.238243 0.237721
vt 2.571257 0.210419
vt 2.585331 0.867003
vt 2.498988 0.235033
vt 2.853133 0.305687
vt 2.779089 0.273134
vt 2.648560 0.210419
vt 2.437108 0.262997
vt 2.715001 0.235270
vt 0.746730 2.379642
vt 0.183371 2.801587
vt 0.687101 2.314106
vt 0.870302 2.704387
vt 0.846878 2.614442
vt 0.791433 2.456142
vt 0.884357 2.801588
vt 0.823398 2.538778
vt 2.371968 2.526191
vt 1.924751 2.840806
vt 2.329603 2.476650
vt 2.461265 2.780188
vt 2.446750 2.722273
vt 2.404544 2.585919
vt 2.469283 2.840806
vt 2.428916 2.654320
vt 2.905478 1.719740
vt 2.459084 2.026491
vt 2.861685 1.667480
vt 2.988507 1.959047
vt 2.975262 1.901334
vt 2.937449 1.779962
vt 2.998507 2.026491
vt 2.959433 1.844502
vt 2.262769 -0.271357
vt 2.878581 0.029086
vt 2.235398 -0.201833
vt 2.222142 -0.129620
vt 2.211782 -0.045642
vt 2.308197 -0.342744
vt 2.204394 0.029087
vt 2.358441 -0.399846
vt 2.499099 1.193142
vt 1.881989 1.505951
vt 2.452502 1.119562
vt 2.393614 1.055393
vt 2.323422 0.992188
vt 2.535857 1.291308
vt 2.559349 1.505952
vt 2.554582 1.403928
vt 2.159374 -0.106296
vt 1.449443 -0.399846
vt 2.188121 -0.200574
vt 2.199791 -0.299749
vt 2.201408 -0.399846
vt 2.106454 -0.010850
vt 1.970759 0.142078
vt 2.038320 0.072886
vt 2.003417 1.802588
vt 2.456098 2.473664
vt 1.924751 1.867361
vt 2.359598 1.681828
vt 2.278210 1.700931
vt 2.093828 1.755583
vt 2.456098 1.667480
vt 2.190566 1.723559
vt -1.447833 -1.963463
vt 0.180385 -1.872847
vt 0.317655 0.210419
vt 1.975385 -1.963224
vt 1.305926 -1.953095
vt 0.183371 -1.952173
vn 0.521800 0.054600 0.851300
vn 0.117700 0.048300 0.991900
vn -0.085800 0.000100 0.996300
vn -0.805600 0.021500 0.592100
vn -0.817700 0.035000 0.574500
vn -0.998800 0.046700 0.013400
vn 0.522100 0.071700 -0.849900
vn 0.870600 0.078300 -0.485700
vn 0.855000 0.109500 -0.507000
vn -0.574900 0.124000 -0.808800
vn -0.521700 0.048900 -0.851700
vn 0.002900 0.062600 -0.998000
vn 0.795700 0.069900 0.601700
vn 0.500100 0.017100 0.865800
vn -0.505200 -0.005300 0.863000
vn -0.524500 0.037100 0.850600
vn 0.490100 0.127000 -0.862400
vn -0.837000 0.097500 -0.538400
vn -0.828100 0.044600 -0.558800
vn 0.997300 0.073200 0.008900
vn 0.878900 0.031600 0.475900
vn -0.996500 0.066200 -0.051900
vn 0.996400 0.065500 0.054300
vn -0.487200 0.111200 0.866200
vn -0.920900 0.032000 0.388400
vn 0.140800 0.002800 -0.990000
vn 0.509600 0.058200 -0.858400
vn -0.968700 -0.046400 -0.243900
vn -0.456900 -0.042500 -0.888500
vn 0.985300 0.170800 -0.003400
vn 0.890700 0.207200 0.404700
vn 0.045600 0.174800 0.983600
vn -0.999400 -0.024400 0.022700
vn 0.919900 0.140900 -0.366000
vn 0.494100 0.201300 0.845800
vn -0.166000 0.979500 -0.114500
vn 0.561500 -0.564300 0.605300
vn 0.354600 -0.558600 0.749800
vn 0.433600 -0.899900 0.045500
vn 0.227900 0.005700 0.973700
vn -0.275200 0.710100 0.648100
vn -0.120400 0.693900 0.710000
vn -0.440500 0.894300 -0.078500
vn -0.291100 0.628300 -0.721400
vn -0.248600 0.589000 -0.769000
vn 0.655700 -0.755000 -0.008800
vn 0.214400 -0.588600 -0.779500
vn 0.140600 0.047900 0.988900
vn -0.288700 0.956800 -0.035000
vn 0.138300 -0.013000 -0.990300
vn -0.064100 0.005700 -0.997900
vn 0.505400 -0.572300 -0.645700
vn 0.680600 0.730700 0.052700
vn 0.188100 -0.513700 -0.837100
vn 0.708500 0.002400 -0.705700
vn 0.822500 -0.026900 -0.568200
vn -0.799200 -0.601000 -0.005200
vn -0.783900 -0.566000 -0.255400
vn -0.337900 -0.673200 -0.657800
vn 0.182500 0.883000 0.432400
vn 0.145400 0.755600 0.638700
vn -0.283900 0.602700 0.745800
vn 0.764500 0.643400 0.040500
vn 0.705100 0.708800 0.021000
vn 0.352900 -0.607700 -0.711400
vn -0.903700 -0.121400 0.410700
vn -0.909500 0.072300 0.409300
vn -0.383000 0.678300 0.627200
vn 0.437400 0.850700 -0.291600
vn 0.465400 0.736700 -0.490500
vn 0.970400 0.191800 0.146800
vn 0.702100 -0.190600 0.686000
vn 0.828500 -0.231500 0.509900
vn 0.330800 -0.558400 0.760800
vn -0.649700 -0.563300 0.510500
vn -0.989600 -0.143500 -0.009000
vn -0.911600 -0.312800 -0.266800
vn -0.219000 0.741600 -0.634100
vn 0.852500 0.356600 0.382300
vn 0.240100 -0.649400 0.721600
vn -0.824300 0.375500 -0.423800
vn -0.832500 0.111200 -0.542700
vn -0.365500 0.662300 -0.654000
vn -0.360900 0.824000 -0.436700
vn 0.390800 0.915500 -0.095100
vn 0.253400 -0.604200 0.755500
vn -0.587000 -0.760200 0.278500
vn -0.801800 -0.496000 -0.333300
vn -0.178800 0.795900 -0.578400
vn 0.627800 -0.076400 0.774600
vn -0.392800 -0.881000 0.263800
vn -0.713600 0.183600 -0.676000
vn -0.057900 0.718300 0.693300
vn 0.865600 -0.424400 -0.265800
vn 0.340200 0.743800 -0.575400
vn 0.943800 0.006600 0.330500
vn 0.250800 0.651200 0.716300
vn -0.779600 0.621800 0.074700
vn 0.100400 -0.488300 -0.866900
vn -0.762000 0.017000 -0.647400
vn 0.035700 0.902400 -0.429400
vn 0.654900 0.415400 0.631300
vn 0.677700 0.273500 -0.682500
vn 0.783300 -0.579100 -0.225900
vn 0.195400 -0.822700 0.533900
vn -0.572100 0.768400 0.286800
vn -0.528500 -0.119500 0.840500
vn 0.001600 0.835400 0.549600
vn 0.655800 -0.311200 0.687800
vn 0.651500 0.754400 -0.080000
vn 0.778500 -0.133200 -0.613400
vn 0.226000 -0.870800 -0.436500
vn -0.535900 0.251500 0.806000
vn -0.524400 -0.769500 0.364500
vn 0.973000 -0.229100 0.028600
vn 0.338700 0.853900 -0.395200
vn 0.648300 0.220700 0.728700
vn -0.415200 0.643600 0.642900
vn -0.902600 0.395800 -0.169600
vn 0.477600 -0.397700 -0.783400
vn -0.561500 0.002100 -0.827500
vn 0.990500 -0.129000 -0.048400
vn 0.219500 0.948700 -0.227600
vn 0.493700 0.208600 0.844200
vn -0.429600 0.376300 0.820900
vn -0.898000 0.282500 -0.337300
vn 0.358000 -0.183000 -0.915600
vn -0.399100 -0.052600 -0.915400
vn -0.538600 0.737500 0.407400
vn 0.320000 -0.122400 0.939500
vn 0.293200 0.944500 0.148400
vn 0.982500 0.090100 -0.162900
vn 0.565600 -0.801900 -0.192300
vn -0.892900 -0.161700 0.420200
vn -0.214900 -0.972400 0.090300
vn 0.352200 0.407400 -0.842600
vn -0.587500 0.809000 0.018800
vn 0.691200 0.672400 0.264900
vn 0.371400 0.329800 0.867900
vn -0.155400 0.027000 0.987500
vn -0.399300 -0.132400 -0.907200
vn -0.871600 -0.490200 0.002500
vn 0.323100 0.402200 -0.856700
vn -0.608300 0.793600 0.014300
vn 0.715400 0.698100 -0.029700
vn 0.175500 0.288000 0.941400
vn -0.438300 -0.246600 0.864400
vn -0.448900 -0.179100 -0.875400
vn -0.849700 -0.485000 0.206900
vn -0.633800 -0.394000 -0.665600
vn 0.166500 0.658300 -0.734100
vn 0.097100 -0.697200 -0.710300
vn 0.775500 -0.474000 -0.417100
vn 0.731200 0.507400 0.455900
vn -0.825000 0.548000 0.138100
vn -0.092000 0.805900 0.584900
vn -0.627400 -0.686500 0.367500
vn -0.335400 0.533800 0.776200
vn -0.979800 -0.133700 -0.148500
vn -0.581400 0.636600 -0.506700
vn 0.357900 0.893300 -0.271700
vn 0.297800 -0.596200 0.745600
vn 0.887300 0.292100 0.356900
vn -0.425100 -0.704100 -0.568900
vn -0.791200 0.535100 -0.296000
vn 0.112700 -0.138100 -0.984000
vn 0.485800 0.673700 -0.556800
vn 0.251700 0.861200 0.441600
vn -0.717800 -0.554500 0.421100
vn -0.302800 0.289500 0.908000
vn 0.745700 0.072300 0.662300
vn 0.664700 -0.539700 -0.516600
vn 0.690400 0.716500 -0.099300
vn -0.058700 0.516500 -0.854300
vn -0.587800 -0.150000 -0.795000
vn 0.158900 -0.694700 0.701500
vn -0.568900 -0.810600 -0.138800
vn -0.000200 0.144500 -0.989500
vn -0.376100 -0.818400 -0.434400
vn 0.719000 0.515500 0.466200
usemtl Material.001
s 1
f 2/1/1 3/2/2 4/3/3
f 5/4/4 6/5/5 7/6/6
f 10/7/7 11/8/8 12/9/9
f 13/10/10 14/11/11 15/12/12
f 18/13/13 2/1/1 1/14/14
f 19/15/15 20/16/16 6/5/5
f 15/12/12 10/7/7 9/17/17
f 21/18/18 22/19/19 14/11/11
f 24/20/20 18/13/13 17/21/21
f 4/3/3 3/2/2 20/16/16
f 8/22/22 7/6/6 22/19/19
f 11/8/8 24/23/20 23/24/23
f 25/25/24 26/26/25 6/5/5
f 15/12/12 27/27/26 28/28/27
f 29/29/28 30/30/29 14/11/11
f 24/20/20 31/31/30 32/32/31
f 33/33/32 25/25/24 20/16/16
f 34/34/33 29/29/28 22/19/19
f 11/8/8 35/35/34 31/36/30
f 36/37/35 33/33/32 3/2/2
f 26/26/25 34/34/33 7/6/6
f 10/7/7 28/28/27 35/35/34
f 14/11/11 30/30/29 27/27/26
f 18/13/13 32/32/31 36/37/35
f 25/25/24 37/38/36 26/26/25
f 27/27/26 37/38/36 28/28/27
f 29/29/28 37/38/36 30/30/29
f 31/31/30 37/38/36 32/32/31
f 33/33/32 37/38/36 25/25/24
f 34/34/33 37/38/36 29/29/28
f 35/35/34 37/38/36 31/36/30
f 36/37/35 37/38/36 33/33/32
f 26/26/25 37/38/36 34/34/33
f 28/28/27 37/38/36 35/35/34
f 30/30/29 37/38/36 27/27/26
f 32/32/31 37/38/36 36/37/35
f 39/39/37 40/40/38 41/41/39
f 42/42/40 43/43/41 44/44/42
f 46/45/43 47/46/44 48/47/45
f 38/48/46 41/41/39 51/49/47
f 42/42/40 45/50/48 40/40/38
f 43/43/41 46/51/43 49/52/49
f 47/46/44 52/53/50 53/54/51
f 50/55/52 51/49/47 53/54/51
f 39/39/37 38/48/46 54/56/53
f 43/43/41 42/42/40 54/56/53
f 47/46/44 46/45/43 54/56/53
f 38/48/46 50/55/52 54/56/53
f 42/42/40 39/39/37 54/56/53
f 46/51/43 43/43/41 54/56/53
f 52/53/50 47/46/44 54/56/53
f 50/55/52 52/53/50 54/56/53
f 56/57/54 57/58/55 58/59/56
f 59/60/57 60/61/58 61/62/59
f 63/63/60 64/64/61 65/65/62
f 57/58/55 67/66/63 68/67/64
f 61/62/59 56/57/54 55/68/65
f 69/69/66 70/70/67 60/61/58
f 66/71/68 65/65/62 70/70/67
f 67/66/63 64/72/61 63/73/60
f 71/74/69 72/75/70 73/76/71
f 75/77/72 76/78/73 77/79/74
f 80/80/75 81/81/76 82/82/77
f 84/83/78 72/84/70 71/85/69
f 74/86/79 73/76/71 76/78/73
f 78/87/80 77/79/74 80/80/75
f 81/81/76 85/88/81 86/89/82
f 85/88/81 84/83/78 83/90/83
f 65/65/62 87/91/84 70/70/67
f 67/66/63 87/91/84 64/72/61
f 56/57/54 87/91/84 57/58/55
f 60/61/58 87/91/84 61/62/59
f 64/64/61 87/91/84 65/65/62
f 57/58/55 87/91/84 67/66/63
f 61/62/59 87/91/84 56/57/54
f 70/70/67 87/91/84 60/61/58
f 88/92/85 71/74/69 74/86/79
f 75/77/72 78/87/80 91/93/86
f 79/94/87 82/82/77 93/95/88
f 94/96/89 83/90/83 71/85/69
f 74/86/79 75/77/72 90/97/90
f 78/87/80 79/94/87 92/98/91
f 93/95/88 82/82/77 86/89/82
f 95/99/92 86/89/82 83/90/83
f 73/76/71 96/100/93 76/78/73
f 77/79/74 96/100/93 80/80/75
f 81/81/76 96/100/93 85/88/81
f 72/75/70 96/100/93 73/76/71
f 76/78/73 96/100/93 77/79/74
f 85/88/81 96/100/93 84/83/78
f 80/80/75 96/100/93 81/81/76
f 84/83/78 96/100/93 72/84/70
f 97/101/94 98/102/95 99/103/96
f 100/104/97 98/102/95 101/105/98
f 102/106/99 98/102/95 97/101/94
f 99/103/96 98/102/95 100/107/97
f 101/105/98 98/102/95 103/108/100
f 103/108/100 98/102/95 102/106/99
f 104/109/101 105/110/102 106/111/103
f 107/112/104 105/110/102 108/113/105
f 109/114/106 105/110/102 104/115/101
f 106/111/103 105/110/102 107/112/104
f 108/113/105 105/110/102 110/116/107
f 110/116/107 105/110/102 109/114/106
f 111/117/108 112/118/109 113/119/110
f 114/120/111 112/118/109 115/121/112
f 116/122/113 112/118/109 111/123/108
f 113/119/110 112/118/109 114/120/111
f 115/121/112 112/118/109 117/124/114
f 117/124/114 112/118/109 116/122/113
f 118/125/115 119/126/116 120/127/117
f 121/128/118 119/126/116 122/129/119
f 123/130/120 119/126/116 118/125/115
f 120/127/117 119/126/116 121/131/118
f 122/129/119 119/126/116 124/132/121
f 124/132/121 119/126/116 123/130/120
f 125/133/122 126/134/123 127/135/124
f 128/136/125 126/134/123 129/137/126
f 130/138/127 126/134/123 125/133/122
f 127/135/124 126/134/123 128/139/125
f 129/137/126 126/134/123 131/140/128
f 131/140/128 126/134/123 130/138/127
f 132/141/129 133/142/130 134/143/131
f 135/144/132 133/142/130 136/145/133
f 137/146/134 133/142/130 132/141/129
f 134/147/131 133/142/130 135/144/132
f 136/145/133 133/142/130 138/148/135
f 138/148/135 133/142/130 137/146/134
f 139/149/136 140/150/137 141/151/138
f 142/152/139 140/150/137 143/153/140
f 144/154/141 140/150/137 139/149/136
f 141/155/138 140/150/137 142/152/139
f 143/153/140 140/150/137 145/156/142
f 145/156/142 140/150/137 144/154/141
f 146/157/143 147/158/144 148/159/145
f 149/160/146 147/158/144 150/161/147
f 151/162/148 147/158/144 146/157/143
f 148/163/145 147/158/144 149/160/146
f 150/161/147 147/158/144 152/164/149
f 152/164/149 147/158/144 151/162/148
f 153/165/150 154/166/151 155/167/152
f 156/168/153 154/166/151 157/169/154
f 158/170/155 154/166/151 153/165/150
f 155/167/152 154/166/151 156/168/153
f 157/169/154 154/166/151 159/171/156
f 159/172/156 154/166/151 158/170/155
f 160/173/157 161/174/158 162/175/159
f 163/176/160 161/174/158 164/177/161
f 165/178/162 161/174/158 160/173/157
f 162/175/159 161/174/158 163/176/160
f 164/179/161 161/174/158 166/180/163
f 166/180/163 161/174/158 165/178/162
f 167/181/164 168/182/165 169/183/166
f 170/184/167 168/182/165 171/185/168
f 172/186/169 168/182/165 167/181/164
f 169/183/166 168/182/165 170/184/167
f 171/187/168 168/182/165 173/188/170
f 173/188/170 168/182/165 172/186/169
f 174/189/171 175/190/172 176/191/173
f 177/192/174 175/190/172 178/193/175
f 179/194/176 175/190/172 174/189/171
f 176/195/173 175/190/172 177/192/174
f 178/193/175 175/190/172 180/196/177
f 180/196/177 175/190/172 179/194/176
f 1/14/14 2/1/1 4/3/3
f 8/22/22 5/4/4 7/6/6
f 9/17/17 10/7/7 12/9/9
f 16/197/178 13/10/10 15/12/12
f 17/21/21 18/13/13 1/14/14
f 5/4/4 19/15/15 6/5/5
f 16/197/178 15/12/12 9/17/17
f 13/10/10 21/18/18 14/11/11
f 23/198/23 24/20/20 17/21/21
f 19/15/15 4/3/3 20/16/16
f 21/18/18 8/22/22 22/19/19
f 12/9/9 11/8/8 23/24/23
f 20/16/16 25/25/24 6/5/5
f 10/7/7 15/12/12 28/28/27
f 22/19/19 29/29/28 14/11/11
f 18/13/13 24/20/20 32/32/31
f 3/2/2 33/33/32 20/16/16
f 7/6/6 34/34/33 22/19/19
f 24/23/20 11/8/8 31/36/30
f 2/1/1 36/37/35 3/2/2
f 6/5/5 26/26/25 7/6/6
f 11/8/8 10/7/7 35/35/34
f 15/12/12 14/11/11 27/27/26
f 2/1/1 18/13/13 36/37/35
f 38/48/46 39/39/37 41/41/39
f 45/50/48 42/42/40 44/44/42
f 49/199/49 46/45/43 48/47/45
f 50/55/52 38/48/46 51/49/47
f 39/39/37 42/42/40 40/40/38
f 44/44/42 43/43/41 49/52/49
f 48/47/45 47/46/44 53/54/51
f 52/53/50 50/55/52 53/54/51
f 55/68/65 56/57/54 58/59/56
f 62/200/179 59/60/57 61/62/59
f 66/71/68 63/63/60 65/65/62
f 58/59/56 57/58/55 68/67/64
f 62/200/179 61/62/59 55/68/65
f 59/60/57 69/69/66 60/61/58
f 69/69/66 66/71/68 70/70/67
f 68/67/64 67/66/63 63/73/60
f 74/86/79 71/74/69 73/76/71
f 78/87/80 75/77/72 77/79/74
f 79/94/87 80/80/75 82/82/77
f 83/90/83 84/83/78 71/85/69
f 75/77/72 74/86/79 76/78/73
f 79/94/87 78/87/80 80/80/75
f 82/82/77 81/81/76 86/89/82
f 86/89/82 85/88/81 83/90/83
f 89/201/180 88/92/85 74/86/79
f 90/97/90 75/77/72 91/93/86
f 92/98/91 79/94/87 93/95/88
f 88/202/85 94/96/89 71/85/69
f 89/201/180 74/86/79 90/97/90
f 91/93/86 78/87/80 92/98/91
f 95/99/92 93/95/88 86/89/82
f 94/96/89 95/99/92 83/90/83
